<?xml version="1.0" standalone="no"?>
<!DOCTYPE svg PUBLIC "-//W3C//DTD SVG 20010904//EN"
 "http://www.w3.org/TR/2001/REC-SVG-20010904/DTD/svg10.dtd">
<svg version="1.0" xmlns="http://www.w3.org/2000/svg"
 width="700.000000pt" height="700.000000pt" viewBox="0 0 700.000000 700.000000"
 preserveAspectRatio="xMidYMid meet">
<metadata>
Created by potrace 1.11, written by Peter Selinger 2001-2013
</metadata>
<g transform="translate(0.000000,700.000000) scale(0.100000,-0.100000)"
fill="#000000" stroke="none">
<path d="M3060 6380 l0 -170 28 4 c171 28 491 39 637 22 124 -14 151 -17 183
-22 l32 -5 0 171 0 170 -440 0 -440 0 0 -170z"/>
<path d="M5230 6094 c0 -5 -15 -25 -33 -44 -17 -19 -53 -60 -79 -92 l-48 -56
34 -29 c18 -17 43 -37 55 -45 25 -18 20 -38 -18 -72 -12 -11 -21 -24 -21 -30
1 -6 26 -29 57 -51 31 -22 92 -73 137 -112 44 -40 83 -73 86 -73 3 0 19 18 36
40 l31 39 57 -49 58 -48 62 75 c33 42 71 87 82 101 l21 26 -26 20 c-14 11 -93
77 -176 146 -82 69 -161 134 -174 145 -14 11 -43 36 -65 55 -72 60 -76 63 -76
54z"/>
<path d="M1660 6017 c-47 -40 -157 -133 -245 -206 -88 -74 -161 -140 -163
-147 -3 -11 143 -194 155 -194 3 0 28 20 56 46 l52 45 37 -42 c42 -47 37 -48
113 24 22 21 77 68 123 104 45 35 82 68 82 71 0 4 -16 23 -35 43 l-34 37 46
38 c25 22 50 41 54 42 5 2 9 8 9 14 0 8 -157 199 -163 198 -1 0 -40 -33 -87
-73z"/>
<path d="M3348 5985 c-2 -2 -37 -6 -78 -9 -86 -7 -144 -14 -180 -21 -14 -3
-41 -7 -60 -10 -19 -3 -48 -10 -65 -15 -16 -5 -41 -11 -55 -13 -99 -15 -357
-110 -520 -191 -538 -270 -951 -712 -1185 -1266 -47 -110 -104 -288 -129 -404
-24 -108 -27 -127 -41 -231 -4 -27 -9 -63 -12 -80 -9 -51 -11 -376 -2 -450 4
-38 10 -97 14 -130 20 -186 90 -439 175 -637 317 -740 963 -1278 1750 -1456
47 -11 107 -23 133 -27 27 -3 59 -8 70 -11 88 -18 431 -25 567 -12 898 89
1660 633 2037 1453 93 204 176 491 198 685 3 30 8 66 10 80 2 14 7 78 10 143
l5 117 -255 0 -255 0 -1 -72 c0 -40 -2 -80 -3 -88 -2 -8 -6 -45 -10 -82 -23
-244 -128 -546 -272 -785 -231 -381 -610 -691 -1026 -839 -85 -30 -273 -79
-339 -88 -25 -4 -57 -9 -70 -11 -90 -15 -319 -20 -424 -10 -65 6 -137 15 -159
20 -12 2 -37 7 -56 10 -19 2 -60 12 -90 20 -30 9 -63 18 -73 20 -121 27 -315
112 -477 208 -511 303 -883 873 -946 1452 -3 28 -7 66 -9 85 -6 47 -6 274 0
328 3 23 7 59 9 80 25 244 137 557 286 802 184 301 502 584 831 739 81 38 236
99 271 106 9 2 50 13 90 24 86 24 160 39 237 47 31 3 70 8 86 10 40 5 283 5
315 0 14 -3 54 -7 90 -10 132 -11 317 -57 474 -117 55 -22 105 -41 110 -42 4
-1 33 52 65 118 72 154 142 307 148 322 6 15 -25 31 -152 78 -176 66 -392 121
-550 140 -27 3 -68 8 -90 12 -40 6 -391 13 -397 8z"/>
<path d="M3460 3691 c-73 -15 -136 -67 -155 -129 -20 -66 2 -158 47 -198 71
-65 106 -68 438 -39 25 2 86 6 135 10 50 3 110 7 135 10 25 2 88 7 140 10 97
6 186 12 275 20 28 2 88 7 135 10 47 3 110 8 140 10 30 3 93 7 140 10 47 3
110 7 140 10 75 6 206 16 277 20 32 2 61 4 64 4 10 1 17 38 10 49 -8 13 -40
19 -145 27 -44 4 -88 8 -98 10 -10 2 -55 7 -101 10 -45 3 -89 8 -97 10 -8 2
-46 7 -85 10 -38 3 -81 8 -95 10 -14 2 -56 6 -95 10 -66 6 -96 9 -197 20 -24
2 -92 9 -153 15 -60 6 -123 13 -140 15 -16 2 -59 7 -95 10 -112 10 -164 16
-195 20 -16 2 -66 7 -110 10 -44 4 -88 9 -98 11 -10 2 -48 6 -85 9 -37 3 -74
8 -82 9 -8 2 -31 0 -50 -3z m77 -167 c11 -17 12 -27 3 -43 -6 -12 -14 -21 -18
-22 -4 0 -15 -2 -25 -4 -16 -3 -47 28 -47 47 0 15 37 45 54 45 10 0 24 -11 33
-23z"/>
</g>
</svg>
