<svg version="1.1"
		 id="Laag_1"
		 xmlns="http://www.w3.org/2000/svg"
		 xmlns:xlink="http://www.w3.org/1999/xlink"
		 x="0px"
		 y="0px"
		 viewBox="0 0 512 512"
		 style="enable-background:new 0 0 512 512;"
		 xml:space="preserve">
	<style type="text/css">
		.wit {
			fill: #FFFFFF;
		}
	</style>
	<path id="XMLID_3_"
				class="wit"
				d="M 256, 401
				c -80.1, 0 -145 -64.9 -145 -145
				s 64.9 -145, 145 -145
				c 21.7, 0, 42.3, 4.8, 60.8, 13.3
				l 15.5 -33.6
				C 309.1, 80, 283.2, 74, 256, 74
				C 155.5, 74, 74, 155.5, 74, 256
				s 81.5, 182, 182, 182
				s 182 -81.5, 182 -182
				h -37
				C 401, 336.1,336.1, 401, 256, 401
				z"/>
	<path id="XMLID_8_"
				class="wit"
				d="M 256, 62
				C 148.9, 62, 62, 148.9, 62, 256
				s 86.9, 194, 194, 194
				s 194 -86.9, 194 -194
				S 363.1, 62, 256, 62
				z
				M 256, 445.1
				c -104.4, 0 -189.1 -84.7 -189.1 -189.1
				S 151.6, 66.9, 256, 66.9
				S 445.1, 151.6, 445.1, 256
				S 360.4, 445.1, 256, 445.1
				z"/>
	<path id="XMLID_4_"
				class="wit"
				d="M 131.8, 87.8
				l 4.3, 5.1
				c -7.1, 5.5 -14, 11.3 -20.7, 17.4
				l -4.3 -5.1
				l -8.3, 7
				L 90.7, 97.8
				l 37.2 -31.3
				l 12.2, 14.4
				L 131.8, 87.8
				z"/>
	<path id="XMLID_13_"
				class="wit"
				d="M 391.8, 255.8
				L 258.1, 242
				l -2.5 -0.3
				c -7.9 -0.1 -14.5, 6.2 -14.6, 14.1
				c -0.1, 7.9, 6.2, 14.5, 14.1, 14.6
				l 2.5 -0.2
				l 134.1 -9.7
				c 1.3, 0, 2.4 -1, 2.4 -2.4
				C 394.2, 256.9, 393.1, 255.8, 391.8, 255.8
				z
				M 256, 259.5
				c -1.9, 0 -3.5 -1.6 -3.5 -3.5
				s 1.6 -3.5, 3.5 -3.5
				s 3.5, 1.6, 3.5, 3.5
				S 257.9, 259.5, 256, 259.5
				z"/>
	<path id="XMLID_19_"
				class="wit"
				d="M 399.9, 104.7
				l -4.3, 5.1
				c -6.7 -6 -13.6 -11.8 -20.7 -17.4
				l 4.3 -5.1
				l -8.3 -6.9
				L 383, 66
				l 37.3, 31.2
				l -12.1, 14.5
				L 399.9, 104.7
				z"/>
	<path id="XMLID_14_"
				class="wit"
				d="M 137, 94
				l -3.6 -4.3
				l -20.7, 17.4
				l 3.7, 4.4
				C 122.8, 105.2, 129.7, 99.4, 137, 94
				z"/>
	<path id="XMLID_9_"
				class="wit"
				d="M 256, 55.1
				c 11,0, 21.7, 0.9, 32.2, 2.6
				V 32.8
				h -64.4
				v 24.9
				C 234.3, 56, 245, 55.1, 256,5 5.1
				z"/>
	<path id="XMLID_11_"
				class="wit"
				d="M 394.9, 110.7
				l 2.1 -2.6
				l -20.7 -17.4
				l -2.2, 2.6
				C 381.5, 98.7, 388.4, 104.5, 394.9, 110.7
				z"/>
</svg>
