<?xml version="1.0" encoding="utf-8"?>
<!-- Generator: Adobe Illustrator 19.0.0, SVG Export Plug-In . SVG Version: 6.00 Build 0)  -->
<svg version="1.1" id="Laag_1" xmlns="http://www.w3.org/2000/svg" xmlns:xlink="http://www.w3.org/1999/xlink" x="0px" y="0px"
	 viewBox="0 0 512 512" style="enable-background:new 0 0 512 512;" xml:space="preserve">
<style type="text/css">
	.st0{fill:#FFFFFF;}
</style>
<path id="XMLID_3_" class="st0" d="M256,401c-80.1,0-145-64.9-145-145s64.9-145,145-145c21.7,0,42.3,4.8,60.8,13.3l15.5-33.6
	C309.1,80,283.2,74,256,74C155.5,74,74,155.5,74,256s81.5,182,182,182s182-81.5,182-182h-37C401,336.1,336.1,401,256,401z"/>
<path id="XMLID_8_" class="st0" d="M256,62C148.9,62,62,148.9,62,256s86.9,194,194,194s194-86.9,194-194S363.1,62,256,62z
	 M256,445.1c-104.4,0-189.1-84.7-189.1-189.1S151.6,66.9,256,66.9S445.1,151.6,445.1,256S360.4,445.1,256,445.1z"/>
<path id="XMLID_4_" class="st0" d="M131.8,87.8l4.3,5.1c-7.1,5.5-14,11.3-20.7,17.4l-4.3-5.1l-8.3,7L90.7,97.8l37.2-31.3l12.2,14.4
	L131.8,87.8z"/>
<path id="XMLID_13_" class="st0" d="M391.8,255.8L258.1,242l-2.5-0.3c-7.9-0.1-14.5,6.2-14.6,14.1c-0.1,7.9,6.2,14.5,14.1,14.6
	l2.5-0.2l134.1-9.7c1.3,0,2.4-1,2.4-2.4C394.2,256.9,393.1,255.8,391.8,255.8z M256,259.5c-1.9,0-3.5-1.6-3.5-3.5s1.6-3.5,3.5-3.5
	s3.5,1.6,3.5,3.5S257.9,259.5,256,259.5z"/>
<path id="XMLID_19_" class="st0" d="M399.9,104.7l-4.3,5.1c-6.7-6-13.6-11.8-20.7-17.4l4.3-5.1l-8.3-6.9L383,66l37.3,31.2
	l-12.1,14.5L399.9,104.7z"/>
<path id="XMLID_14_" class="st0" d="M137,94l-3.6-4.3l-20.7,17.4l3.7,4.4C122.8,105.2,129.7,99.4,137,94z"/>
<path id="XMLID_9_" class="st0" d="M256,55.1c11,0,21.7,0.9,32.2,2.6V32.8h-64.4v24.9C234.3,56,245,55.1,256,55.1z"/>
<path id="XMLID_11_" class="st0" d="M394.9,110.7l2.1-2.6l-20.7-17.4l-2.2,2.6C381.5,98.7,388.4,104.5,394.9,110.7z"/>
</svg>
