<?xml version="1.0" encoding="utf-8"?>
<!-- Generator: Adobe Illustrator 19.0.0, SVG Export Plug-In . SVG Version: 6.00 Build 0)  -->
<svg version="1.1" id="Laag_1" xmlns="http://www.w3.org/2000/svg" xmlns:xlink="http://www.w3.org/1999/xlink" x="0px" y="0px"
	 viewBox="0 0 512 512" style="enable-background:new 0 0 512 512;" xml:space="preserve">
<style type="text/css">
	.st0{fill:#FFFFFF;}
</style>
<path id="XMLID_8_" class="st0" d="M256,62C148.9,62,62,148.9,62,256s86.9,194,194,194s194-86.9,194-194S363.1,62,256,62z
	 M256,445.1c-104.4,0-189.1-84.7-189.1-189.1S151.6,66.9,256,66.9S445.1,151.6,445.1,256S360.4,445.1,256,445.1z"/>
<path id="XMLID_4_" class="st0" d="M131.8,87.8l4.3,5.1c-7.1,5.5-14,11.3-20.7,17.4l-4.3-5.1l-8.3,7L90.7,97.8l37.2-31.3l12.2,14.4
	L131.8,87.8z"/>
<path id="XMLID_13_" class="st0" d="M391.8,255.8L258.1,242l-2.5-0.3c-7.9-0.1-14.5,6.2-14.6,14.1s6.2,14.5,14.1,14.6l2.5-0.2
	l134.1-9.7c1.3,0,2.4-1,2.4-2.4C394.2,256.9,393.1,255.8,391.8,255.8z M256,259.5c-1.9,0-3.5-1.6-3.5-3.5s1.6-3.5,3.5-3.5
	s3.5,1.6,3.5,3.5S257.9,259.5,256,259.5z"/>
<path id="XMLID_19_" class="st0" d="M399.9,104.7l-4.3,5.1c-6.7-6-13.6-11.8-20.7-17.4l4.3-5.1l-8.3-6.9L383,66l37.3,31.2
	l-12.1,14.5L399.9,104.7z"/>
<path id="XMLID_14_" class="st0" d="M137,94l-3.6-4.3l-20.7,17.4l3.7,4.4C122.8,105.2,129.7,99.4,137,94z"/>
<path id="XMLID_9_" class="st0" d="M256,55.1c11,0,21.7,0.9,32.2,2.6V32.8h-64.4v24.9C234.3,56,245,55.1,256,55.1z"/>
<path id="XMLID_11_" class="st0" d="M394.9,110.7l2.1-2.6l-20.7-17.4l-2.2,2.6C381.5,98.7,388.4,104.5,394.9,110.7z"/>
<path class="st0" d="M291.3,434.6c0.6-0.1,1.2-0.2,1.8-0.4c0.4-0.1,0.9-0.2,1.3-0.3c26.7-5.7,51.2-17.3,72.1-33.3
	c21-16,38.6-36.6,51.1-60.9c0.2-0.4,0.4-0.8,0.6-1.2c0.3-0.6,0.6-1.1,0.8-1.7c0.5-0.9,0.9-1.8,1.4-2.8c0-0.1,0.1-0.2,0.1-0.3
	c11.2-23.6,17.4-50,17.4-77.8h-37c0,13.1-1.8,25.9-5,38l0,0c-2.9,10.6-6.9,20.6-11.8,29.9c-0.2,0.3-0.3,0.6-0.5,0.9
	c-0.2,0.4-0.5,0.8-0.7,1.2c-9.7,17.6-23,32.9-38.9,45.1c-15.9,12.1-34.2,20.9-53.7,25.7c-0.5,0.1-0.9,0.2-1.4,0.3
	c-0.3,0.1-0.7,0.2-1,0.2c-10.3,2.3-21,3.5-32,3.5c-6,0-11.9-0.4-17.7-1.1c-0.5-0.1-0.9-0.1-1.4-0.2c-0.5-0.1-0.9-0.1-1.4-0.2
	c-5.8-0.8-11.6-2-17.4-3.6c-10.6-2.9-20.6-6.9-29.9-11.8c-0.3-0.2-0.6-0.3-0.9-0.5c-0.4-0.2-0.8-0.5-1.2-0.7
	c-17.6-9.7-32.9-23-45.1-38.9c-12.1-15.9-20.9-34.2-25.7-53.7c-0.1-0.5-0.2-0.9-0.3-1.4c-0.1-0.3-0.2-0.7-0.2-1
	c-2.3-10.3-3.5-21-3.5-32c0-6,0.4-11.9,1.1-17.7c0.1-0.5,0.1-0.9,0.2-1.4c0.1-0.5,0.1-0.9,0.2-1.4c0.8-5.8,2-11.6,3.6-17.4
	c2.9-10.6,6.9-20.6,11.8-29.9c0.2-0.3,0.3-0.6,0.5-0.9c0.2-0.4,0.5-0.8,0.7-1.2c9.7-17.6,23-32.9,38.9-45.1
	c15.9-12.1,34.2-20.9,53.7-25.7c0.5-0.1,0.9-0.2,1.4-0.3c0.3-0.1,0.7-0.2,1-0.2c10.3-2.3,21-3.5,32-3.5c8,0,15.9,0.7,23.6,1.9
	c4.8,0.8,9.6,1.8,14.4,3.1c20.9,5.7,39.6,15.7,55.2,28.8l23.8-28.4c-12.2-10.2-25.8-18.9-40.7-25.7l0,0c-16-7.4-33.2-12.5-51.2-15
	c-19.3-2.7-38.5-2.2-57,1.1c-0.1,0-0.2,0-0.3,0.1c-1,0.2-2,0.4-3,0.6c-0.6,0.1-1.2,0.2-1.8,0.4c-0.4,0.1-0.9,0.2-1.3,0.3
	c-26.7,5.7-51.2,17.3-72.1,33.3c-21,16-38.6,36.6-51.1,60.9c-0.2,0.4-0.4,0.8-0.6,1.2c-0.3,0.6-0.6,1.1-0.8,1.7
	c-0.5,0.9-0.9,1.8-1.4,2.8c0,0.1-0.1,0.2-0.1,0.3c-7.1,15.1-12.3,31.3-15,48.3c0,0,0,0.1,0,0.1c-0.2,1.2-0.4,2.4-0.5,3.6
	c-0.1,0.6-0.2,1.2-0.3,1.8c-0.1,0.6-0.2,1.2-0.2,1.8c-0.1,1.2-0.3,2.4-0.4,3.6c0,0,0,0.1,0,0.1c-1.8,17.1-1.1,34.1,1.9,50.5
	c0,0.1,0,0.2,0.1,0.3c0.2,1,0.4,2,0.6,3c0.1,0.6,0.2,1.2,0.4,1.8c0.1,0.4,0.2,0.9,0.3,1.3c5.7,26.7,17.3,51.2,33.3,72.1
	c16,21,36.6,38.6,60.9,51.1c0.4,0.2,0.8,0.4,1.2,0.6c0.6,0.3,1.1,0.6,1.7,0.8c0.9,0.5,1.8,0.9,2.8,1.4c0.1,0,0.2,0.1,0.3,0.1
	c15.1,7.1,31.3,12.3,48.3,15c0,0,0.1,0,0.1,0c1.2,0.2,2.4,0.4,3.6,0.5c0.6,0.1,1.2,0.2,1.8,0.3c0.6,0.1,1.2,0.2,1.8,0.2
	c1.2,0.1,2.4,0.3,3.6,0.4c0,0,0.1,0,0.1,0c17.1,1.8,34.1,1.1,50.5-1.9c0.1,0,0.2,0,0.3-0.1C289.3,435,290.3,434.8,291.3,434.6z"/>
</svg>
